<svg width="64" height="58" viewBox="0 0 64 58" fill="#ff5b5b" xmlns="http://www.w3.org/2000/svg">
<path d="M28.3629 52.7124L28.3608 52.7105C20.0903 45.3028 13.348 39.2613 8.65531 33.5944C3.97922 27.9475 1.5 22.8592 1.5 17.3842C1.5 8.49487 8.55493 1.5 17.6 1.5C22.7207 1.5 27.6537 3.86182 30.8639 7.58545L32 8.9032L33.1361 7.58545C36.3463 3.86182 41.2793 1.5 46.4 1.5C55.4451 1.5 62.5 8.49487 62.5 17.3842C62.5 22.8593 60.0208 27.9476 55.3444 33.5987C50.6599 39.2596 43.9336 45.2971 35.6835 52.7023L35.6413 52.7402L35.638 52.7431L32.0038 55.9862L28.3629 52.7124Z"/>
</svg>
