<svg width="15" height="10" viewBox="0 0 15 10" fill="none" xmlns="http://www.w3.org/2000/svg">
<path d="M7.33333 1.33333C9.86 1.33333 12.1133 2.75333 13.2133 5C12.1133 7.24667 9.86 8.66667 7.33333 8.66667C4.80667 8.66667 2.55333 7.24667 1.45333 5C2.55333 2.75333 4.80667 1.33333 7.33333 1.33333ZM7.33333 0C4 0 1.15333 2.07333 0 5C1.15333 7.92667 4 10 7.33333 10C10.6667 10 13.5133 7.92667 14.6667 5C13.5133 2.07333 10.6667 0 7.33333 0ZM7.33333 3.33333C8.25333 3.33333 9 4.08 9 5C9 5.92 8.25333 6.66667 7.33333 6.66667C6.41333 6.66667 5.66667 5.92 5.66667 5C5.66667 4.08 6.41333 3.33333 7.33333 3.33333ZM7.33333 2C5.68 2 4.33333 3.34667 4.33333 5C4.33333 6.65333 5.68 8 7.33333 8C8.98667 8 10.3333 6.65333 10.3333 5C10.3333 3.34667 8.98667 2 7.33333 2Z" fill="#B3B3B3"/>
</svg>
