<svg width="14" height="10" viewBox="0 0 14 10" fill="none" xmlns="http://www.w3.org/2000/svg">
<g clip-path="url(#clip0)">
<path d="M3.99 1C4.54 1 4.99 1.45 4.99 2C4.99 2.55 4.54 3 3.99 3C3.44 3 2.99 2.55 2.99 2C2.99 1.45 3.44 1 3.99 1ZM3.99 0C2.88 0 1.99 0.9 1.99 2C1.99 3.1 2.89 4 3.99 4C5.09 4 5.99 3.1 5.99 2C5.99 0.9 5.09 0 3.99 0Z" fill="#B3B3B3"/>
<path d="M9.99 1C10.54 1 10.99 1.45 10.99 2C10.99 2.55 10.54 3 9.99 3C9.44 3 8.99 2.55 8.99 2C8.99 1.45 9.44 1 9.99 1ZM9.99 0C8.88 0 7.99 0.9 7.99 2C7.99 3.1 8.89 4 9.99 4C11.09 4 11.99 3.1 11.99 2C11.99 0.9 11.1 0 9.99 0Z" fill="#B3B3B3"/>
<path d="M4 5.97C5.94 5.97 7 6.72 7 6.97V8.97H1V6.97C1 6.72 2.06 5.97 4 5.97ZM4 4.97C1.79 4.97 0 5.87 0 6.97V9.97H8V6.97C8 5.87 6.21 4.97 4 4.97Z" fill="#B3B3B3"/>
<path d="M10 5.97C11.94 5.97 13 6.72 13 6.97V8.97H10V6.97C10 6.66 9.95 6.31 9.84 5.97C9.89 5.97 9.95 5.97 10 5.97ZM10 4.97C9.2 4.97 8.5 5.08 8 5.26C8.71 5.56 9 6.34 9 6.97V9.97H14V6.97C14 5.87 12.21 4.97 10 4.97Z" fill="#B3B3B3"/>
</g>
<defs>
<clipPath id="clip0">
<rect width="14" height="9.97" fill="white"/>
</clipPath>
</defs>
</svg>
