<svg width="16" height="16" viewBox="0 0 16 16" fill="none" xmlns="http://www.w3.org/2000/svg">
<path d="M8 2C10.1856 2 11.9691 3.79 11.9691 6C11.9691 6.37 11.9072 6.75 11.7629 7.2C11.7629 7.2 11.6495 7.55 11.6186 7.64C10.732 9.81 9.01031 12.14 8 13.41C6.98969 12.14 5.26804 9.81 4.38144 7.64C4.35052 7.55 4.23711 7.2 4.23711 7.2C4.09278 6.75 4.03093 6.37 4.03093 6C4.03093 3.79 5.81443 2 8 2ZM8 1C5.23711 1 3 3.24 3 6C3 6.52 3.10309 7.02 3.25773 7.5C3.25773 7.5 3.40206 7.95 3.43299 8.01C4.79381 11.37 8 15 8 15C8 15 11.2062 11.37 12.5773 8.01C12.5979 7.95 12.7423 7.5 12.7423 7.5C12.8969 7.02 13 6.52 13 6C13 3.24 10.7629 1 8 1Z" fill="#B3B3B3"/>
<path d="M8 4.79999C8.56701 4.79999 9.03092 5.24999 9.03092 5.79999C9.03092 6.34999 8.56701 6.79999 8 6.79999C7.43299 6.79999 6.96907 6.34999 6.96907 5.79999C6.96907 5.24999 7.43299 4.79999 8 4.79999ZM8 3.79999C6.86598 3.79999 5.93814 4.69999 5.93814 5.79999C5.93814 6.89999 6.86598 7.79999 8 7.79999C9.13402 7.79999 10.0619 6.89999 10.0619 5.79999C10.0619 4.69999 9.13402 3.79999 8 3.79999Z" fill="#B3B3B3"/>
</svg>
