<svg width="14" height="14" viewBox="0 0 14 14" fill="none" xmlns="http://www.w3.org/2000/svg">
<path d="M3.23703 10.8061C2.12748 10.2102 1.21187 9.44579 0.598986 8.36083C-0.418038 6.55958 -0.11752 4.32645 1.31327 2.81337C2.56346 1.4914 4.10602 0.796935 5.87508 0.575728C7.83215 0.331198 9.67745 0.665264 11.3695 1.72013C12.4843 2.41535 13.3451 3.35661 13.7515 4.63569C14.3429 6.49713 13.8499 8.12006 12.5309 9.49018C11.3207 10.7482 9.80476 11.399 8.10306 11.5796C7.39839 11.6541 6.67967 11.5841 5.96834 11.6067C5.78626 11.6127 5.58566 11.6857 5.4317 11.788C4.62637 12.32 3.83659 12.876 3.03274 13.4094C2.92763 13.4794 2.77145 13.4711 2.63896 13.499C2.63748 13.3703 2.60935 13.2341 2.6397 13.1138C2.82993 12.3523 3.032 11.5931 3.23703 10.8061Z" fill="black"/>
</svg>
