<svg width="20" height="20" viewBox="0 0 20 20" fill="none" xmlns="http://www.w3.org/2000/svg">
<path d="M19.9998 10.2299C19.9998 9.55015 19.9436 8.86672 19.8237 8.198H10.2013V12.0487H15.7116C15.4829 13.2906 14.7482 14.3892 13.6724 15.0873V17.5859H16.9598C18.8903 15.8443 19.9998 13.2722 19.9998 10.2299Z" fill="#4285F4"/>
<path d="M10.2015 20C12.9529 20 15.2732 19.1145 16.9637 17.586L13.6763 15.0874C12.7617 15.6974 11.5809 16.0428 10.2052 16.0428C7.54381 16.0428 5.28723 14.2828 4.47756 11.9165H1.08519V14.4922C2.81699 17.8689 6.3443 20 10.2015 20Z" fill="#34A853"/>
<path d="M4.47381 11.9165C4.04648 10.6746 4.04648 9.32983 4.47381 8.08791V5.51221H1.08518C-0.361728 8.33776 -0.361728 11.6667 1.08518 14.4922L4.47381 11.9165Z" fill="#FBBC04"/>
<path d="M10.2015 3.95792C11.6559 3.93587 13.0616 4.47232 14.1149 5.45704L17.0275 2.60209C15.1832 0.904557 12.7355 -0.0287207 10.2015 0.000673866C6.3443 0.000673866 2.81699 2.13178 1.08519 5.51215L4.47381 8.08785C5.27973 5.71792 7.54007 3.95792 10.2015 3.95792Z" fill="#EA4335"/>
</svg>
