<svg width="25" height="25" viewBox="0 0 25 25" fill="none" xmlns="http://www.w3.org/2000/svg">
<path d="M12.4982 13.4513C14.8449 13.4513 16.7474 11.5489 16.7474 9.20209C16.7474 6.85532 14.8449 4.95288 12.4982 4.95288C10.1514 4.95288 8.24896 6.85532 8.24896 9.20209C8.24896 11.5489 10.1514 13.4513 12.4982 13.4513Z" stroke="#969696" stroke-width="1.5" stroke-miterlimit="10" stroke-linejoin="round"/>
<path d="M24.2559 12.5002C24.2559 6.01246 18.9964 0.743042 12.4988 0.743042C6.01108 0.743042 0.741669 6.00255 0.741669 12.5002C0.741669 16.2541 2.50474 19.5822 5.2385 21.7316L6.46671 17.5715C6.77376 16.7593 7.32844 16.0758 8.36845 16.0758H16.6291C17.6791 16.0758 18.2238 16.9079 18.5309 17.5715L19.7591 21.7316C22.4929 19.5822 24.2559 16.2442 24.2559 12.5002Z" stroke="#969696" stroke-width="1.5" stroke-miterlimit="10" stroke-linejoin="round"/>
<path d="M16.6277 16.0858H8.36695C7.31703 16.0858 6.77226 16.7693 6.46521 17.5815L5.237 21.7415C7.23779 23.3164 9.75364 24.2574 12.4973 24.2574C15.241 24.2574 17.7568 23.3065 19.7576 21.7415L18.5294 17.5815C18.2224 16.9178 17.6677 16.0858 16.6277 16.0858Z" stroke="#969696" stroke-width="1.5" stroke-miterlimit="10" stroke-linejoin="round"/>
</svg>
