<svg width="20" height="20" viewBox="0 0 20 20" fill="none" xmlns="http://www.w3.org/2000/svg">
<circle cx="10" cy="10" r="10" fill="#FADC4A"/>
<g clip-path="url(#clip0)">
<path d="M9.9999 5.11708C6.84333 5.11708 4.2838 7.138 4.2838 9.63241C4.2838 11.2347 5.34392 12.6414 6.93596 13.4444L6.39736 15.4549C6.37674 15.5166 6.39384 15.5819 6.43858 15.6264C6.46938 15.6575 6.51049 15.6746 6.55511 15.6746C6.58954 15.6746 6.62374 15.6609 6.65466 15.6369L8.97059 14.0722C9.30694 14.1202 9.65008 14.1476 9.9999 14.1476C13.1565 14.1476 15.7162 12.1268 15.7162 9.63241C15.7162 7.138 13.1565 5.11708 9.9999 5.11708Z" fill="#3C1E1E"/>
</g>
<defs>
<clipPath id="clip0">
<rect x="4.16667" y="5" width="11.6667" height="10.7917" fill="white"/>
</clipPath>
</defs>
</svg>
