<svg width="84" height="16" viewBox="0 0 84 16" fill="none" xmlns="http://www.w3.org/2000/svg">
<path d="M4.73924 5.28961C3.48577 4.7363 2.64778 4.21823 2.64778 4.21823C2.30976 3.9821 2.03513 3.69663 2.03513 3.20323C2.03513 2.16708 2.90129 1.50804 4.01744 1.50804C5.28147 1.50804 5.99271 2.59705 6.31664 3.23495V3.25609H6.3272H8.02783V0.0595489H6.35537V0.542378L6.43635 1.61729C6.43987 1.65253 6.39058 1.66663 6.37649 1.63139L6.0244 0.919479C5.4716 0.267483 4.60544 0.0384031 3.90829 0.00668436C1.64782 -0.102569 0.295762 1.13446 0.302804 3.20323V3.21732C0.302804 3.21732 0.0704195 5.346 3.66886 6.6218C5.32724 7.21036 5.99975 7.69671 6.44339 8.21478C6.8483 8.73286 6.90816 9.51878 6.6124 9.97694C6.27439 10.6078 5.4047 10.9391 4.47869 10.9391C2.95058 10.9391 2.03513 9.84654 1.63726 8.85973V7.83064H0V12.2854H1.63726V11.873L1.56331 10.8862C1.55979 10.851 1.60909 10.8369 1.62317 10.8721L1.97527 11.5206C2.48229 12.0457 3.26043 12.5849 4.64769 12.5849C6.87647 12.5849 8.51021 11.1752 8.51021 9.05004C8.51021 7.99275 7.98206 7.26322 7.38701 6.68524C6.99619 6.30109 5.50329 5.62442 4.73924 5.28961Z" fill="#333333"/>
<path d="M12.6578 10.7522C12.6296 10.7557 12.6015 10.7311 12.605 10.7029L12.686 10.1319V5.70542L12.5909 5.09924C12.5874 5.07104 12.612 5.04285 12.6402 5.04638L13.2529 5.13448H15.0521V3.68952H13.3057L12.6543 3.79172C12.6261 3.79525 12.598 3.77058 12.6015 3.74238L12.6825 3.17145V0.806641H10.9818V3.1644L11.0663 3.74591C11.0698 3.7741 11.0452 3.79877 11.0135 3.79525L10.3621 3.69304H8.50305V5.13801H10.4149L11.0276 5.0499C11.0558 5.04638 11.0804 5.07104 11.0769 5.10276L10.9783 5.71952V12.2078H15.7105V10.6535H13.274L12.6578 10.7522Z" fill="#333333"/>
<path d="M25.1539 10.7557C25.1258 10.7592 25.0976 10.7346 25.1011 10.7064L25.1821 10.1354V3.69653H22.2245V5.1415H23.0061L23.6188 5.05339C23.6469 5.04987 23.6716 5.07454 23.6681 5.10625L23.566 5.75825C23.566 5.7653 23.5589 5.7653 23.5554 5.77235V8.61646C23.4744 9.74071 22.3512 10.8156 21.2456 10.8156C20.14 10.8156 19.2352 9.9275 19.1577 8.80325V3.69653H16.2001V5.1415H16.9395L17.5521 5.05339C17.5803 5.04987 17.6049 5.07454 17.6014 5.10625L17.4993 5.75825C17.4993 5.76177 17.4958 5.76177 17.4958 5.7653C17.4958 7.18559 17.4993 8.83849 17.5028 8.88078C17.6261 10.8438 19.1823 12.398 21.1752 12.398C22.0379 12.398 22.7702 12.0562 23.1857 11.6474L23.5941 11.0271C23.6117 10.9954 23.661 11.0095 23.654 11.0447L23.5237 11.8623V12.2148H26.5553V10.6606H25.8053L25.1539 10.7557Z" fill="#333333"/>
<path d="M72.8632 10.6889L72.2118 10.7911C72.1836 10.7946 72.1555 10.77 72.159 10.7418L72.2435 10.1638V3.73193H68.5464V5.1769H70.0217L70.6344 5.08879C70.6626 5.08527 70.6872 5.10994 70.6837 5.14165L70.5816 5.79365V10.1708L70.6661 10.7453C70.6696 10.7735 70.645 10.7982 70.6133 10.7946L69.9619 10.6924C69.9619 10.6924 69.9619 10.6889 69.9584 10.6889H68.6204V12.2431L74.2786 12.2466V10.6924L72.8632 10.6889Z" fill="#333333"/>
<path d="M43.5229 3.69312V5.13808H44.463L44.8573 5.07112C44.8996 5.06407 44.9277 5.11341 44.8996 5.14513L44.6813 5.39535L42.6109 10.5585L42.4701 11.3021C42.4666 11.3373 42.4173 11.3409 42.4067 11.3056L42.2025 10.4492L40.0864 5.38126L39.8822 5.14513C39.854 5.11341 39.8822 5.06407 39.9244 5.07112L40.3223 5.13808H41.3399V3.69312H37.1252V5.13808H38.2836L41.5969 12.8105L40.8962 14.4281H38.6498V15.9824H41.9772L46.5298 5.13808H47.5579V3.69312H43.5229Z" fill="#333333"/>
<path d="M66.6522 10.7911C66.6241 10.7946 66.5959 10.7699 66.5994 10.7418L66.6875 10.1391V7.8765C66.6734 5.42358 65.4481 3.40416 62.9939 3.40416C62.244 3.40416 61.5081 3.78126 61.0468 4.26761L60.6314 4.90199C60.6138 4.9337 60.5645 4.91961 60.5715 4.88436L60.6983 4.08435V0.584717H57.7019V1.95567H59.0328V12.2431H61.9553V10.6889H61.2334L60.5856 10.7911C60.5574 10.7946 60.5293 10.7699 60.5328 10.7418L60.6208 10.1285V6.75224C60.8285 5.96985 61.5891 4.88436 62.9165 4.88436C64.4587 4.88436 65.0537 6.28351 65.0678 7.8765H65.0608V12.2431H67.9092V10.6889H67.3001L66.6522 10.7911Z" fill="#333333"/>
<path d="M71.152 2.27979C71.7717 2.27979 72.2716 1.77934 72.2716 1.15906C72.2716 0.538781 71.7717 0.0383301 71.152 0.0383301C70.5323 0.0383301 70.0323 0.538781 70.0323 1.15906C70.0323 1.77934 70.5323 2.27979 71.152 2.27979Z" fill="#333333"/>
<path d="M36.1569 10.6535L35.509 10.7557C35.4809 10.7592 35.4527 10.7345 35.4562 10.7064L35.5372 10.146L35.5337 0.549316H32.5373V1.95551H33.8682V3.83044L34.0302 4.86306C34.0373 4.8983 33.988 4.91593 33.9704 4.88068L33.5795 4.28508C32.9845 3.61193 32.0902 3.40048 31.386 3.40048C28.9178 3.40048 27.3228 5.4058 27.3228 7.87634C27.3228 10.3469 28.7417 12.3522 31.5726 12.3522C32.3578 12.3522 33.0901 11.9469 33.5514 11.4324L33.9492 10.8262C33.9668 10.7945 34.0161 10.8086 34.0091 10.8438L33.8682 11.7354V12.2042H36.8646V10.65L36.1569 10.6535ZM33.9844 9.20852C33.9457 9.43056 33.7239 9.72307 33.7239 9.72307C33.2591 10.3821 32.4951 10.8368 31.6148 10.8368C30.0586 10.8368 29.0199 9.49047 29.0199 7.87986C29.0199 6.26573 29.8367 4.88421 31.393 4.88421C32.5901 4.88421 33.3647 5.44105 33.8225 6.18467C33.826 6.19172 33.8471 6.22697 33.8718 6.28335C33.9105 6.36794 33.9633 6.49129 33.9844 6.61816C34.0232 6.84019 34.0302 8.9442 33.9844 9.20852Z" fill="#333333"/>
<path d="M79.9016 3.52051C79.12 3.52051 78.3489 3.88351 77.8102 4.41568L77.3947 5.05006C77.3771 5.08177 77.3278 5.06768 77.3348 5.03243L77.4581 4.26061V3.70025L74.4617 3.69672V5.17693H75.2047L75.7962 5.09235C75.8243 5.08882 75.849 5.11349 75.8455 5.14521L75.7927 5.48354L75.7856 14.1533L75.8384 14.5163C75.842 14.5445 75.8173 14.5692 75.7856 14.5657L75.2223 14.4776H74.5955V15.9965L79.1658 16.0001V14.4811H77.9686L77.4229 14.5657C77.3947 14.5692 77.3665 14.5445 77.3701 14.5163L77.4475 13.9842V11.6335L77.3348 10.9145C77.3278 10.8793 77.3771 10.8616 77.3947 10.8969L77.7996 11.5136C78.363 12.081 79.1834 12.3947 79.8559 12.3947C82.3241 12.3982 83.9965 10.4317 84.0001 7.96113C84.0001 5.49059 82.3699 3.52051 79.9016 3.52051ZM79.7819 10.8793C78.8277 10.8793 77.9475 10.3858 77.4898 9.63517C77.4827 9.6246 77.4757 9.61403 77.4686 9.59993C77.4616 9.58936 77.4546 9.57526 77.4475 9.56116C77.4088 9.4801 77.3489 9.34618 77.3278 9.20873C77.2926 8.99023 77.2856 6.91089 77.3278 6.64656C77.363 6.43863 77.5602 6.17078 77.5813 6.13906C78.0461 5.46592 78.8911 5.00071 79.7855 5.00071C81.3417 5.00071 82.3417 6.347 82.3382 7.96113C82.3417 9.57526 81.3382 10.8828 79.7819 10.8793Z" fill="#333333"/>
<path d="M54.3006 7.32652C53.026 7.04105 50.6775 7.20669 50.681 6.06129C50.681 5.2507 51.5296 4.7714 52.6422 4.7714C53.8253 4.7714 54.7407 5.59256 55.0365 6.44544L56.5893 6.42782V3.59076H55.0365V3.92557L55.1703 4.76788C55.1773 4.80312 55.128 4.82074 55.1104 4.7855L54.7231 4.19341C54.1598 3.71058 53.4274 3.34406 52.607 3.31586C50.9064 3.25595 49.0121 3.989 49.0121 6.12473C49.0121 6.53003 49.1213 7.31595 49.748 7.83402C50.2515 8.24989 50.9662 8.42962 51.8183 8.50716C53.1774 8.63403 53.9767 8.81025 54.4591 9.0358C54.8006 9.18383 55.0999 9.41643 55.0717 9.99794C55.04 10.657 54.5682 11.2138 53.0648 11.2138C51.9768 11.2138 50.667 10.1142 50.4381 9.30013V8.89131H48.9593V12.2711L50.4381 12.2852V11.968L50.3325 11.2878C50.3254 11.2526 50.3747 11.235 50.3923 11.2702L50.7937 11.8799C51.3078 12.3451 52.1211 12.7187 53.026 12.7363C55.8041 12.7927 56.7759 10.9953 56.7759 9.9345C56.7759 9.50806 56.6808 8.95475 56.3005 8.41553C55.966 7.9045 55.459 7.58379 54.3006 7.32652Z" fill="#333333"/>
</svg>
