<svg id="Layer_1" data-name="Layer 1" xmlns="http://www.w3.org/2000/svg" viewBox="0 0 417.75 79.86"><defs><style>.cls-1{fill:#fff;}</style></defs><title>Studyship_Logo</title><path class="cls-1" d="M23.69,26.41a93.1,93.1,0,0,1-10.45-5.34c-1.68-1.19-3.06-2.61-3.06-5.07,0-5.18,4.33-8.45,9.91-8.45,6.3,0,9.86,5.43,11.49,8.61v.09h8.54V.31H31.76v2.4h0l.4,5.36a.16.16,0,0,1-.3.07L30.09,4.59C27.33,1.35,23,.19,19.53,0c-11.28-.53-18,5.65-18,16v.07s-1.17,10.62,16.8,17C26.61,36,30,38.41,32.18,41c2,2.59,2.32,6.51.84,8.8-1.68,3.14-6,4.79-10.65,4.79-7.63,0-12.2-5.45-14.19-10.38V39.09H0V61.31H8.18V59.25l-.37-4.93a.16.16,0,0,1,.3-.07l1.76,3.23c2.54,2.63,6.41,5.31,13.35,5.31,11.14,0,19.3-7,19.3-17.63,0-5.27-2.64-8.92-5.6-11.8C35,31.45,27.49,28.09,23.69,26.41Z"/><path class="cls-1" d="M63.23,53.66a.22.22,0,0,1-.25-.25l.41-2.85V28.49l-.48-3a.22.22,0,0,1,.25-.25l3.06.44h9v-7.2H66.49L63.23,19a.22.22,0,0,1-.25-.25l.41-2.84V4.05h-8.5V15.81l.42,2.91a.23.23,0,0,1-.25.25l-3.26-.51H42.52v7.2h9.55l3-.44a.23.23,0,0,1,.26.25l-.49,3.08V60.93H78.53V53.17H66.36Z"/><path class="cls-1" d="M125.64,53.68a.23.23,0,0,1-.25-.25l.41-2.85V18.46H111v7.2h3.9l3.06-.44a.22.22,0,0,1,.25.25l-.51,3.26s0,0-.06.06V43c-.39,5.62-6,11-11.54,11a10.62,10.62,0,0,1-10.43-10V18.46H80.93v7.2h3.7l3.05-.44a.22.22,0,0,1,.25.25l-.51,3.26s0,0,0,0c0,7.09,0,15.33,0,15.55a18.41,18.41,0,0,0,18.33,17.54,14.57,14.57,0,0,0,10-3.74l2-3.11a.15.15,0,0,1,.29.1l-.64,4.07v1.76h15.14V53.17h-3.75Z"/><path class="cls-1" d="M362.13,53.35l-3.25.51a.23.23,0,0,1-.26-.25l.42-2.88V18.64H340.57v7.2h7.36L351,25.4a.23.23,0,0,1,.26.26l-.51,3.24V50.75l.41,2.86a.23.23,0,0,1-.26.25l-3.25-.51h-6.69v7.75l28.26,0V53.35h-7.06Z"/><path class="cls-1" d="M217.38,18.45v7.2h4.69l2-.33a.23.23,0,0,1,.21.38L223.17,27,212.83,52.71l-.71,3.71a.16.16,0,0,1-.31,0l-1-4.27L200.22,26.88l-1-1.18a.23.23,0,0,1,.21-.38l2,.33h5.08v-7.2h-21v7.2h5.78l16.54,38.27L204.25,72H193v7.75h16.62l22.73-54.11h5.14v-7.2Z"/><path class="cls-1" d="M331.12,53.86a.22.22,0,0,1-.25-.25l.43-3V39.32h0C331.22,27.08,325.12,17,312.85,17a14,14,0,0,0-9.72,4.31h0l-2.08,3.17a.15.15,0,0,1-.29-.1l.63-4V2.94h-15V9.78h6.65V61.11h14.59V53.36h-3.61l-3.24.5a.22.22,0,0,1-.25-.25l.44-3h0V33.7c1-3.91,4.83-9.31,11.46-9.31,7.7,0,10.67,7,10.74,14.93h0V61.11H337.4V53.36h-3Z"/><path class="cls-1" d="M353.59,11.39A5.59,5.59,0,1,0,348,5.81,5.59,5.59,0,0,0,353.59,11.39Z"/><path class="cls-1" d="M180.58,53.17l-3.23.51a.23.23,0,0,1-.25-.25l.4-2.8V2.76h-15v7h6.65v9.36L170,24.3a.16.16,0,0,1-.3.09l-1.94-3c-3-3.37-7.45-4.42-11-4.42-12.34,0-20.3,10-20.3,22.34s7.08,22.32,21.23,22.32a13.8,13.8,0,0,0,9.89-4.59l2-3a.15.15,0,0,1,.29.1l-.7,4.44v2.34h15V53.17ZM169.74,46a7.61,7.61,0,0,1-1.29,2.57h0a13,13,0,0,1-10.54,5.57c-7.77,0-12.95-6.71-13-14.76s4.08-15,11.85-15c6,0,9.85,2.79,12.13,6.48h0a4.67,4.67,0,0,1,.26.49,6.53,6.53,0,0,1,.55,1.67C169.93,34.15,170,44.64,169.74,46Z"/><path class="cls-1" d="M397.29,17.58a15.24,15.24,0,0,0-10.44,4.47h0l-2.08,3.16a.16.16,0,0,1-.3-.09l.61-3.85V18.49h-15v7.39h3.7l3-.43a.23.23,0,0,1,.25.26l-.27,1.68,0,43.26.26,1.82a.22.22,0,0,1-.25.25l-2.82-.44h-3.12v7.57l22.82,0V72.29h-6l-2.73.43a.23.23,0,0,1-.25-.25L385,69.8V58.07l-.57-3.58a.16.16,0,0,1,.3-.1l2,3.09a15.33,15.33,0,0,0,10.27,4.39c12.33,0,20.67-9.79,20.69-22.12S409.62,17.58,397.29,17.58ZM396.7,54.3a13.42,13.42,0,0,1-11.44-6.2,1.62,1.62,0,0,1-.1-.18l-.11-.2a6.77,6.77,0,0,1-.6-1.76c-.18-1.1-.22-11.47,0-12.78a7.33,7.33,0,0,1,1.27-2.53,13.62,13.62,0,0,1,11-5.69c7.77,0,12.77,6.73,12.76,14.78S404.46,54.31,396.7,54.3Z"/><path class="cls-1" d="M269.44,36.57c-6.36-1.42-18.1-.59-18.08-6.32,0-4,4.24-6.44,9.8-6.44a12.87,12.87,0,0,1,12,8.35l7.76-.1V17.9h-7.76v1.68l.67,4.2a.16.16,0,0,1-.3.1l-1.93-2.95A17.4,17.4,0,0,0,261,16.55c-8.49-.3-17.94,3.36-17.94,14,0,2,.53,5.94,3.67,8.53,2.51,2.08,6.08,3,10.33,3.35,6.79.64,10.77,1.52,13.18,2.63a4.44,4.44,0,0,1,3,4.8c-.16,3.29-2.51,6.07-10,6.07-5.43,0-12-5.49-13.11-9.56v-2h-7.38V61.21l7.38.06V59.68l-.53-3.39a.16.16,0,0,1,.3-.09l2,3a17.5,17.5,0,0,0,11.16,4.27c13.87.27,18.72-8.69,18.72-14A13,13,0,0,0,279.4,42C277.74,39.46,275.22,37.86,269.44,36.57Z"/></svg>